<?xml version="1.0" encoding="UTF-8" standalone="no"?>
<!DOCTYPE svg PUBLIC "-//W3C//DTD SVG 1.0//EN" "http://www.w3.org/TR/2001/PR-SVG-20010719/DTD/svg10.dtd">
<svg width="18cm" height="11cm" viewBox="431 217 345 207" xmlns="http://www.w3.org/2000/svg" xmlns:xlink="http://www.w3.org/1999/xlink">
  <g>
    <rect style="fill: #b3b3b3" x="461.662" y="365" width="40.678" height="30.5085"/>
    <rect style="fill: none; fill-opacity:0; stroke-width: 1; stroke: #000000" x="461.662" y="365" width="40.678" height="30.5085"/>
    <rect style="fill: #000000" x="466.069" y="369.407" width="31.8644" height="21.0169"/>
    <polygon style="fill: #b3b3b3" points="467.17,395.508 488.103,395.508 488.103,400.254 468.272,400.254 "/>
    <polygon style="fill: none; fill-opacity:0; stroke-width: 1; stroke: #000000" points="467.17,395.508 488.103,395.508 488.103,400.254 468.272,400.254 "/>
    <polygon style="fill: #b3b3b3" points="488.103,395.508 496.831,395.508 495.73,400.254 488.103,400.254 "/>
    <polygon style="fill: none; fill-opacity:0; stroke-width: 1; stroke: #000000" points="488.103,395.508 496.831,395.508 495.73,400.254 488.103,400.254 "/>
    <rect style="fill: #ffffff" x="489.526" y="396.932" width="1.89831" height="1.89831"/>
    <rect style="fill: none; fill-opacity:0; stroke-width: 0.5; stroke: #000000" x="489.526" y="396.932" width="1.89831" height="1.89831"/>
    <polygon style="fill: #b3b3b3" points="477.933,400.254 486.069,400.254 486.069,402.627 490.137,402.627 490.137,405 473.865,405 473.865,402.627 477.933,402.627 "/>
    <polygon style="fill: none; fill-opacity:0; stroke-width: 1; stroke: #000000" points="477.933,400.254 486.069,400.254 486.069,402.627 490.137,402.627 490.137,405 473.865,405 473.865,402.627 477.933,402.627 "/>
    <text font-size="12.8" style="fill: #7f7f7f;text-anchor:middle;font-family:sans-serif;font-style:normal;font-weight:normal" x="482.001" y="418.356">
      <tspan x="482.001" y="418.356">client-pc</tspan>
    </text>
  </g>
  <g>
    <rect style="fill: #b3b3b3" x="462.662" y="233" width="40.678" height="30.5085"/>
    <rect style="fill: none; fill-opacity:0; stroke-width: 1; stroke: #000000" x="462.662" y="233" width="40.678" height="30.5085"/>
    <rect style="fill: #000000" x="467.069" y="237.407" width="31.8644" height="21.0169"/>
    <polygon style="fill: #b3b3b3" points="468.17,263.508 489.103,263.508 489.103,268.254 469.272,268.254 "/>
    <polygon style="fill: none; fill-opacity:0; stroke-width: 1; stroke: #000000" points="468.17,263.508 489.103,263.508 489.103,268.254 469.272,268.254 "/>
    <polygon style="fill: #b3b3b3" points="489.103,263.508 497.831,263.508 496.73,268.254 489.103,268.254 "/>
    <polygon style="fill: none; fill-opacity:0; stroke-width: 1; stroke: #000000" points="489.103,263.508 497.831,263.508 496.73,268.254 489.103,268.254 "/>
    <rect style="fill: #ffffff" x="490.526" y="264.932" width="1.89831" height="1.89831"/>
    <rect style="fill: none; fill-opacity:0; stroke-width: 0.5; stroke: #000000" x="490.526" y="264.932" width="1.89831" height="1.89831"/>
    <polygon style="fill: #b3b3b3" points="478.933,268.254 487.069,268.254 487.069,270.627 491.137,270.627 491.137,273 474.865,273 474.865,270.627 478.933,270.627 "/>
    <polygon style="fill: none; fill-opacity:0; stroke-width: 1; stroke: #000000" points="478.933,268.254 487.069,268.254 487.069,270.627 491.137,270.627 491.137,273 474.865,273 474.865,270.627 478.933,270.627 "/>
    <text font-size="12.8" style="fill: #7f7f7f;text-anchor:middle;font-family:sans-serif;font-style:normal;font-weight:normal" x="483.001" y="286.356">
      <tspan x="483.001" y="286.356">passthrough-pc</tspan>
    </text>
  </g>
  <g>
    <path style="fill: #ffffff" d="M 611.447 274.973 C 596.326,274.392 567,286.595 571.124,312.743 C 575.248,338.892 594.951,344.703 603.199,337.149 C 611.447,329.595 590.369,373.757 630.693,385.378 C 671.016,397 691.636,378.405 685.679,365.041 C 679.722,351.676 720.962,396.419 740.207,370.851 C 759.453,345.284 720.504,320.879 728.752,324.365 C 737,327.852 762.202,323.203 753.954,279.622 C 745.706,236.041 671.474,269.743 679.722,263.351 C 687.97,256.96 667.35,225 641.69,231.392 C 616.03,237.784 614.21,249.383 611.46,274.95 L 611.447,274.973z"/>
    <path style="fill: none; fill-opacity:0; stroke-width: 2; stroke: #bfbfbf" d="M 611.447 274.973 C 596.326,274.392 567,286.595 571.124,312.743 C 575.248,338.892 594.951,344.703 603.199,337.149 C 611.447,329.595 590.369,373.757 630.693,385.378 C 671.016,397 691.636,378.405 685.679,365.041 C 679.722,351.676 720.962,396.419 740.207,370.851 C 759.453,345.284 720.504,320.879 728.752,324.365 C 737,327.852 762.202,323.203 753.954,279.622 C 745.706,236.041 671.474,269.743 679.722,263.351 C 687.97,256.96 667.35,225 641.69,231.392 C 616.03,237.784 614.21,249.383 611.46,274.95 L 611.447,274.973"/>
    <text font-size="12.8" style="fill: #000000;text-anchor:start;font-family:sans-serif;font-style:normal;font-weight:normal" x="618.268" y="318.032">
      <tspan x="618.268" y="318.032"></tspan>
    </text>
  </g>
  <g>
    <rect style="fill: #b3b3b3" x="605.812" y="218" width="26.9498" height="62.8828"/>
    <rect style="fill: none; fill-opacity:0; stroke-width: 1.6; stroke: #000000" x="605.812" y="218" width="26.9498" height="62.8828"/>
    <rect style="fill: none; fill-opacity:0; stroke-width: 0.2; stroke: #000000" x="608.507" y="221.773" width="21.5598" height="7.1866"/>
    <rect style="fill: none; fill-opacity:0; stroke-width: 0.2; stroke: #000000" x="608.507" y="228.96" width="21.5598" height="7.1866"/>
    <rect style="fill: none; fill-opacity:0; stroke-width: 0.2; stroke: #000000" x="608.507" y="236.146" width="21.5598" height="7.1866"/>
    <rect style="fill: none; fill-opacity:0; stroke-width: 0.2; stroke: #000000" x="608.507" y="243.333" width="21.5598" height="7.1866"/>
    <rect style="fill: none; fill-opacity:0; stroke-width: 0.2; stroke: #000000" x="608.507" y="251.957" width="13.4749" height="4.31196"/>
    <ellipse style="fill: #00ff00" cx="628.719" cy="252.675" rx="0.943242" ry="0.943242"/>
    <ellipse style="fill: none; fill-opacity:0; stroke-width: 0.2; stroke: #000000" cx="628.719" cy="252.675" rx="0.943242" ry="0.943242"/>
    <ellipse style="fill: #ffff00" cx="628.719" cy="255.55" rx="0.943242" ry="0.943242"/>
    <ellipse style="fill: none; fill-opacity:0; stroke-width: 0.2; stroke: #000000" cx="628.719" cy="255.55" rx="0.943242" ry="0.943242"/>
    <rect style="fill: #ffffff" x="623.329" y="253.394" width="3.23397" height="2.87464"/>
    <rect style="fill: none; fill-opacity:0; stroke-width: 0.2; stroke: #000000" x="623.329" y="253.394" width="3.23397" height="2.87464"/>
    <path style="fill: none; fill-opacity:0; stroke-width: 0.2; stroke: #000000" d="M 610.304 262.018 L 610.304,277.739"/>
    <path style="fill: none; fill-opacity:0; stroke-width: 0.2; stroke: #000000" d="M 614.795 262.018 L 614.795,277.739"/>
    <path style="fill: none; fill-opacity:0; stroke-width: 0.2; stroke: #000000" d="M 619.287 262.018 L 619.287,277.739"/>
    <path style="fill: none; fill-opacity:0; stroke-width: 0.2; stroke: #000000" d="M 623.778 262.018 L 623.778,277.739"/>
    <path style="fill: none; fill-opacity:0; stroke-width: 0.2; stroke: #000000" d="M 628.27 262.018 L 628.27,277.739"/>
    <path style="fill: none; fill-opacity:0; stroke-width: 0.2; stroke: #000000" d="M 632.762 262.018 L 632.762,277.739"/>
    <polygon style="fill: #999999" points="600.422,286.273 605.812,275.493 605.812,280.883 632.762,280.883 632.762,275.493 639.948,286.273 "/>
    <polygon style="fill: none; fill-opacity:0; stroke-width: 0.2; stroke: #000000" points="600.422,286.273 605.812,275.493 605.812,280.883 632.762,280.883 632.762,275.493 639.948,286.273 "/>
    <text font-size="12.8" style="fill: #7f7f7f;text-anchor:middle;font-family:sans-serif;font-style:normal;font-weight:normal" x="620.185" y="300.069">
      <tspan x="620.185" y="300.069">server-pc</tspan>
    </text>
  </g>
  <line style="fill: none; fill-opacity:0; stroke-width: 2; stroke: #000000" x1="503.842" y1="252.869" x2="605.005" y2="252.232"/>
  <line style="fill: none; fill-opacity:0; stroke-width: 2; stroke: #000000" x1="482.156" y1="364.496" x2="482.717" y2="290.455"/>
  <path style="fill: none; fill-opacity:0; stroke-width: 2; stroke-dasharray: 4; stroke: #000000" d="M 633.563 257.778 C 704.379,287.642 673.798,395.095 502.798,386.095"/>
  <text font-size="12.8" style="fill: #000000;text-anchor:start;font-family:sans-serif;font-style:normal;font-weight:normal" x="637.542" y="250.912">
    <tspan x="637.542" y="250.912">SSH (192.168.3.3:22)</tspan>
  </text>
  <text font-size="12.8" style="fill: #000000;text-anchor:start;font-family:sans-serif;font-style:normal;font-weight:normal" x="484" y="300">
    <tspan x="484" y="300">128.4.1.82</tspan>
  </text>
  <text font-size="12.8" style="fill: #000000;text-anchor:start;font-family:sans-serif;font-style:normal;font-weight:normal" x="484" y="361">
    <tspan x="484" y="361">128.4.1.1</tspan>
  </text>
  <text font-size="12.8" style="fill: #000000;text-anchor:start;font-family:sans-serif;font-style:normal;font-weight:normal" x="504" y="248">
    <tspan x="504" y="248">192.168.4.2</tspan>
  </text>
  <text font-size="12.8" style="fill: #000000;text-anchor:start;font-family:sans-serif;font-style:normal;font-weight:normal" x="529" y="266">
    <tspan x="529" y="266">192.168.4.1</tspan>
  </text>
  <text font-size="12.8" style="fill: #bfbfbf;text-anchor:start;font-family:sans-serif;font-style:normal;font-weight:normal" x="662.748" y="358.372">
    <tspan x="662.748" y="358.372">192.168.3.0/24</tspan>
  </text>
</svg>
